<?xml version="1.0" encoding="UTF-8"?>
<svg id="Capa_1" data-name="Capa 1" xmlns="http://www.w3.org/2000/svg" viewBox="0 0 463.96 467.62">
  <defs>
    <style>
      .cls-1 {
        fill: #0c242b;
      }

      .cls-1, .cls-2, .cls-3 {
        stroke-width: 0px;
      }

      .cls-2 {
        fill: #da4635;
      }

      .cls-3 {
        fill: #fff;
      }
    </style>
  </defs>
  <polygon class="cls-1" points="403.96 262.15 388.76 220.65 370.29 221.02 366.26 213.37 380.91 196.2 354.7 160.62 335.96 160.36 325.9 145.21 318.01 131.26 287.17 110.22 276.48 80.19 249.65 60 156.29 85.41 75.29 203.22 60 282.57 160.08 407.62 201.33 368.7 188.76 353.07 162.14 378.19 81.38 277.29 94.13 211.11 168.62 102.78 245.45 81.87 259.65 92.56 268.32 116.93 270.51 123.07 275.89 126.74 302.89 145.16 308.5 155.06 308.85 155.68 309.24 156.28 319.3 171.42 325.14 180.21 335.69 180.36 344.49 180.48 355.39 195.29 351.04 200.39 342.24 210.71 348.57 222.7 352.6 230.35 358.35 241.26 370.68 241.01 374.89 240.93 379.32 253.03 368.38 259.17 375.79 275.83 377.48 279.6 370.56 281.77 352.22 287.53 356.42 303.06 341.42 317.18 317.1 323.45 285.77 331.42 257.88 326.47 254.73 325.91 251.56 326.36 217.19 331.27 210.91 332.17 208.2 334.72 219.86 351.22 220.02 351.07 254.39 346.16 286.52 351.86 322.07 342.83 351.38 335.26 378.85 309.41 376.54 300.86 391.84 296.06 400.42 281.98 394.07 267.7 403.96 262.15"/>
  <g>
    <path class="cls-2" d="M218.95,351.45c-.31-.44-45.75-64.96-68.18-99.25-2.58-3.95-4.31-8.34-5.86-12.78-2.25-6.48-3.66-13.14-4.06-20-1.45-24.57,6.65-45.5,24.34-62.57,10.85-10.47,23.87-17.04,38.69-19.94,6.25-1.22,12.54-1.7,18.91-1.35,19.87,1.08,36.96,8.58,51.15,22.47,11.37,11.12,18.59,24.6,21.79,40.2,1.2,5.85,1.72,11.76,1.53,17.72-.38,12.44-3.41,24.2-9.45,35.1-1.8,3.25-4.01,6.27-6.05,9.39-20.69,31.56-62.52,90.6-62.82,91.02ZM218.99,183.51c-16.82,0-30.12,13.66-30.16,30.04-.04,16.26,13.05,30.17,30.09,30.19,16.91.02,30.04-13.66,30.16-29.87.13-16.6-13.28-30.33-30.09-30.36Z"/>
    <path class="cls-3" d="M218.99,183.51c-16.82,0-30.12,13.66-30.16,30.04-.04,16.26,13.05,30.17,30.09,30.19,16.91.02,30.04-13.66,30.16-29.87.13-16.6-13.28-30.33-30.09-30.36Z"/>
  </g>
</svg>