<?xml version="1.0" encoding="UTF-8"?>
<svg id="Capa_1" data-name="Capa 1" xmlns="http://www.w3.org/2000/svg" viewBox="0 0 463.96 664.62">
  <defs>
    <style>
      .cls-1 {
        fill: #0c242b;
      }

      .cls-1, .cls-2, .cls-3 {
        stroke-width: 0px;
      }

      .cls-2 {
        fill: #da4635;
      }

      .cls-3 {
        fill: #fff;
      }
    </style>
  </defs>
  <g>
    <polygon class="cls-1" points="403.96 262.15 388.77 220.65 370.29 221.02 366.26 213.37 380.91 196.2 354.7 160.62 335.96 160.36 325.91 145.21 318.01 131.26 287.17 110.22 276.48 80.19 249.65 60 156.3 85.41 75.29 203.22 60 282.57 160.08 407.62 201.33 368.7 188.76 353.07 162.14 378.19 81.39 277.29 94.13 211.11 168.62 102.78 245.45 81.87 259.65 92.56 268.33 116.93 270.51 123.07 275.9 126.74 302.89 145.16 308.5 155.06 308.85 155.68 309.24 156.28 319.3 171.42 325.14 180.21 335.69 180.36 344.49 180.48 355.4 195.29 351.04 200.39 342.24 210.71 348.57 222.7 352.6 230.35 358.35 241.26 370.69 241.01 374.89 240.93 379.32 253.03 368.38 259.17 375.8 275.83 377.48 279.6 370.56 281.77 352.22 287.53 356.42 303.06 341.42 317.18 317.1 323.45 285.77 331.42 257.88 326.47 254.73 325.91 251.56 326.36 217.19 331.27 210.91 332.17 208.21 334.72 219.86 351.22 220.02 351.07 254.39 346.16 286.52 351.86 322.07 342.83 351.38 335.26 378.86 309.41 376.54 300.86 391.84 296.06 400.42 281.98 394.07 267.7 403.96 262.15"/>
    <g>
      <path class="cls-2" d="M218.95,351.45c-.31-.44-45.75-64.96-68.18-99.25-2.58-3.95-4.31-8.34-5.86-12.78-2.25-6.48-3.66-13.14-4.06-20-1.45-24.57,6.65-45.5,24.34-62.57,10.85-10.47,23.87-17.04,38.69-19.94,6.25-1.22,12.54-1.7,18.91-1.35,19.87,1.08,36.96,8.58,51.15,22.47,11.37,11.12,18.59,24.6,21.79,40.2,1.2,5.85,1.72,11.76,1.53,17.72-.38,12.44-3.41,24.2-9.45,35.1-1.8,3.25-4.01,6.27-6.05,9.39-20.69,31.56-62.52,90.6-62.82,91.02ZM218.99,183.51c-16.82,0-30.12,13.66-30.16,30.04-.04,16.26,13.05,30.17,30.09,30.19,16.91.02,30.04-13.66,30.16-29.87.13-16.6-13.28-30.33-30.09-30.36Z"/>
      <path class="cls-3" d="M218.99,183.51c-16.82,0-30.12,13.66-30.16,30.04-.04,16.26,13.05,30.17,30.09,30.19,16.91.02,30.04-13.66,30.16-29.87.13-16.6-13.28-30.33-30.09-30.36Z"/>
    </g>
  </g>
  <g>
    <path class="cls-1" d="M64.63,516.56l20.29-55.62h20.78l20.29,55.62h-18.92l-2.34-7.84h-19.48l-2.34,7.84h-18.27ZM88.97,496.27h12.13l-2.67-8.89c-.22-.65-.46-1.43-.73-2.34-.27-.92-.54-1.89-.81-2.91-.27-1.02-.54-2.03-.81-3.03-.27-1-.51-1.87-.73-2.63h-.65c-.22.97-.5,2.08-.85,3.32-.35,1.24-.71,2.52-1.09,3.84-.38,1.32-.75,2.57-1.13,3.76l-2.67,8.89Z"/>
    <path class="cls-1" d="M131.57,516.56v-58.61h16.09v58.61h-16.09Z"/>
    <path class="cls-1" d="M185.42,532.49v-19.81h-.57c-.97,1.02-2.05,1.9-3.23,2.63-1.19.73-2.47,1.28-3.84,1.66-1.37.38-2.82.57-4.33.57-3.77,0-7.01-.82-9.7-2.47-2.7-1.64-4.76-4.11-6.18-7.4-1.43-3.29-2.14-7.41-2.14-12.37s.71-9.18,2.14-12.49c1.43-3.31,3.49-5.79,6.18-7.44,2.69-1.64,5.93-2.47,9.7-2.47,2.75,0,5.27.59,7.56,1.78,2.29,1.19,4.11,2.94,5.46,5.25h.57l1.38-6.06h13.1v58.61h-16.09ZM178.46,505.65c1.24,0,2.32-.24,3.23-.73.92-.49,1.66-1.14,2.22-1.98.57-.83.98-1.81,1.25-2.91.27-1.1.4-2.28.4-3.52v-2.67c0-1.67-.24-3.19-.73-4.57s-1.25-2.47-2.3-3.27-2.41-1.21-4.08-1.21-3.02.34-4.04,1.01c-1.02.67-1.77,1.63-2.22,2.87-.46,1.24-.69,2.7-.69,4.37v4.29c0,1.67.23,3.13.69,4.37.46,1.24,1.2,2.21,2.22,2.91,1.02.7,2.37,1.05,4.04,1.05Z"/>
    <path class="cls-1" d="M226,517.53c-5.07,0-8.81-1.4-11.24-4.2-2.43-2.8-3.64-6.74-3.64-11.8v-27.65h16.09v25.71c0,.86.12,1.67.36,2.43.24.75.58,1.4,1.01,1.94.43.54,1,.96,1.7,1.25.7.3,1.48.44,2.34.44,1.35,0,2.52-.31,3.52-.93,1-.62,1.78-1.44,2.34-2.47.57-1.02.85-2.13.85-3.31v-25.06h16.09v42.69h-13.18l-.81-6.47h-.57c-1.02,1.56-2.33,2.91-3.92,4.04s-3.33,1.98-5.21,2.55c-1.89.57-3.8.85-5.74.85Z"/>
    <path class="cls-1" d="M265.21,468.86v-10.91h16.09v10.91h-16.09ZM265.21,516.56v-42.69h16.09v42.69h-16.09Z"/>
    <path class="cls-1" d="M291,516.56v-58.61h16.09v58.61h-16.09Z"/>
    <path class="cls-1" d="M329.4,517.53c-2.21,0-4.23-.2-6.06-.61-1.83-.4-3.42-1.08-4.77-2.02-1.35-.94-2.38-2.18-3.11-3.72s-1.09-3.41-1.09-5.62c0-3.18.66-5.77,1.98-7.76,1.32-1.99,3.25-3.53,5.78-4.61,2.53-1.08,5.62-1.82,9.26-2.22s7.8-.61,12.49-.61v-2.1c0-1.18-.28-2.14-.85-2.87-.57-.73-1.31-1.28-2.22-1.66-.92-.38-1.97-.57-3.15-.57-.92,0-1.86.11-2.83.32-.97.22-1.77.59-2.38,1.13-.62.54-.93,1.29-.93,2.26v.32h-15.85c-.05-.21-.08-.4-.08-.57v-.57c0-2.64.85-4.94,2.55-6.91,1.7-1.97,4.2-3.5,7.52-4.61,3.31-1.1,7.4-1.66,12.25-1.66,3.93,0,7.57.43,10.91,1.29,3.34.86,6.04,2.3,8.08,4.33,2.05,2.02,3.07,4.78,3.07,8.29v16.65c0,.86.21,1.6.65,2.22.43.62,1.08.93,1.94.93h2.91v9.3c-.65.38-1.71.74-3.19,1.09-1.48.35-3.22.53-5.21.53-2.16,0-4.04-.22-5.66-.65-1.62-.43-2.92-1.05-3.92-1.86-1-.81-1.68-1.75-2.06-2.83h-.57c-1.13,1.02-2.44,1.94-3.92,2.75-1.48.81-3.17,1.44-5.05,1.9-1.89.46-4.04.69-6.47.69ZM335.94,507.51c1.02,0,2.01-.15,2.95-.44.94-.3,1.79-.7,2.55-1.21.75-.51,1.35-1.13,1.78-1.86.43-.73.65-1.52.65-2.38v-3.64c-3.18,0-5.75.24-7.72.73-1.97.49-3.41,1.13-4.33,1.94-.92.81-1.37,1.75-1.37,2.83s.27,1.91.81,2.51c.54.59,1.22,1,2.06,1.21.83.22,1.71.32,2.63.32Z"/>
    <path class="cls-1" d="M370.71,516.56v-42.69h13.18l1.05,6.47h.57c.7-1.62,1.6-2.99,2.71-4.12,1.1-1.13,2.38-1.98,3.84-2.55,1.46-.57,2.99-.85,4.61-.85,1.08,0,2.05.11,2.91.32.86.22,1.48.43,1.86.65v13.5h-5.17c-1.73,0-3.19.23-4.41.69-1.21.46-2.18,1.13-2.91,2.02s-1.27,1.97-1.62,3.23c-.35,1.27-.53,2.71-.53,4.33v19h-16.09Z"/>
    <path class="cls-1" d="M73.69,606.38c-5.12,0-9.55-.79-13.3-2.38-3.75-1.59-6.63-4.03-8.65-7.32-2.02-3.29-3.03-7.49-3.03-12.61s1-9.16,2.99-12.45c1.99-3.29,4.78-5.75,8.37-7.4,3.58-1.64,7.8-2.47,12.65-2.47,5.12,0,9.47.8,13.06,2.38,3.58,1.59,6.32,4.03,8.21,7.32,1.89,3.29,2.83,7.49,2.83,12.61v2.75h-32.01c0,1.94.28,3.61.85,5.01.57,1.4,1.48,2.47,2.75,3.19,1.27.73,2.92,1.09,4.97,1.09,1.46,0,2.68-.16,3.68-.49,1-.32,1.8-.77,2.42-1.33.62-.57,1.06-1.23,1.33-1.98.27-.75.4-1.56.4-2.43h15.6c0,2.53-.49,4.82-1.46,6.87-.97,2.05-2.42,3.79-4.37,5.21-1.94,1.43-4.35,2.52-7.24,3.27-2.88.75-6.24,1.13-10.07,1.13ZM64.87,579.22h15.68c0-1.13-.16-2.14-.49-3.03s-.8-1.64-1.42-2.26c-.62-.62-1.37-1.09-2.26-1.42-.89-.32-1.9-.48-3.03-.48-1.78,0-3.26.3-4.45.89-1.19.59-2.1,1.42-2.75,2.47s-1.08,2.33-1.29,3.84Z"/>
    <path class="cls-1" d="M104.57,605.41v-42.69h13.18l1.05,6.47h.57c1.13-1.67,2.45-3.06,3.96-4.16,1.51-1.1,3.18-1.93,5.01-2.47,1.83-.54,3.72-.81,5.66-.81,3.4,0,6.18.63,8.37,1.9,2.18,1.27,3.81,3.09,4.89,5.46,1.08,2.37,1.62,5.25,1.62,8.65v27.65h-16.09v-25.71c0-.92-.12-1.74-.36-2.47-.24-.73-.58-1.36-1.01-1.9-.43-.54-.98-.96-1.66-1.25-.67-.3-1.47-.45-2.38-.45-1.35,0-2.52.31-3.52.93-1,.62-1.78,1.43-2.34,2.43-.57,1-.85,2.12-.85,3.36v25.06h-16.09Z"/>
    <path class="cls-1" d="M200.69,606.38c-6.31,0-11.6-1.08-15.89-3.23-4.28-2.16-7.52-5.38-9.7-9.66-2.18-4.28-3.27-9.58-3.27-15.89,0-9.49,2.44-16.65,7.32-21.5s12.06-7.28,21.55-7.28c5.39,0,10.09.9,14.11,2.71,4.01,1.81,7.13,4.49,9.34,8.04,2.21,3.56,3.31,7.92,3.31,13.1h-17.06c0-2.16-.38-4.01-1.13-5.58-.76-1.56-1.85-2.78-3.27-3.64-1.43-.86-3.22-1.29-5.38-1.29-2.53,0-4.57.54-6.1,1.62s-2.66,2.59-3.36,4.53c-.7,1.94-1.05,4.18-1.05,6.71v5.17c0,2.53.36,4.77,1.09,6.71.73,1.94,1.85,3.45,3.36,4.53,1.51,1.08,3.48,1.62,5.9,1.62s4.33-.4,5.86-1.21,2.69-1.98,3.48-3.52c.78-1.54,1.17-3.36,1.17-5.46h16.49c0,5.07-1.05,9.35-3.15,12.85-2.1,3.5-5.15,6.16-9.14,7.96-3.99,1.81-8.81,2.71-14.47,2.71Z"/>
    <path class="cls-1" d="M230.28,605.41l20.29-55.62h20.78l20.29,55.62h-18.92l-2.34-7.84h-19.48l-2.34,7.84h-18.27ZM254.62,585.12h12.13l-2.67-8.89c-.22-.65-.46-1.43-.73-2.34-.27-.92-.54-1.89-.81-2.91-.27-1.02-.54-2.03-.81-3.03-.27-1-.51-1.87-.73-2.63h-.65c-.22.97-.5,2.08-.85,3.32-.35,1.24-.71,2.52-1.09,3.84-.38,1.32-.75,2.57-1.13,3.76l-2.67,8.89Z"/>
    <path class="cls-1" d="M298.35,605.41v-55.62h37.03c2.8,0,5.36.58,7.68,1.74s4.18,2.76,5.58,4.81c1.4,2.05,2.1,4.42,2.1,7.11s-.43,4.91-1.29,6.63c-.86,1.73-2,3.09-3.4,4.08-1.4,1-2.94,1.74-4.61,2.22v.32c1.94.43,3.71,1.17,5.29,2.22,1.59,1.05,2.87,2.52,3.84,4.41.97,1.89,1.46,4.31,1.46,7.28s-.73,5.55-2.18,7.76c-1.46,2.21-3.4,3.93-5.82,5.17-2.43,1.24-5.15,1.86-8.17,1.86h-37.51ZM316.22,571.46h12.29c.86,0,1.59-.2,2.18-.61.59-.4,1.06-.98,1.42-1.74.35-.75.53-1.7.53-2.83s-.4-2.2-1.21-3.03c-.81-.83-1.78-1.25-2.91-1.25h-12.29v9.46ZM316.22,592.47h13.58c1.24,0,2.24-.43,2.99-1.29.75-.86,1.13-2.16,1.13-3.88,0-.81-.18-1.55-.53-2.22-.35-.67-.84-1.2-1.46-1.58-.62-.38-1.33-.57-2.14-.57h-13.58v9.54Z"/>
    <path class="cls-1" d="M356.08,605.41l20.29-55.62h20.78l20.29,55.62h-18.92l-2.34-7.84h-19.48l-2.34,7.84h-18.27ZM380.41,585.12h12.13l-2.67-8.89c-.22-.65-.46-1.43-.73-2.34-.27-.92-.54-1.89-.81-2.91-.27-1.02-.54-2.03-.81-3.03-.27-1-.51-1.87-.73-2.63h-.65c-.22.97-.5,2.08-.85,3.32-.35,1.24-.71,2.52-1.09,3.84-.38,1.32-.75,2.57-1.13,3.76l-2.67,8.89Z"/>
  </g>
</svg>