<?xml version="1.0" encoding="UTF-8"?>
<svg id="Capa_1" data-name="Capa 1" xmlns="http://www.w3.org/2000/svg" viewBox="0 0 1053.96 467.62">
  <defs>
    <style>
      .cls-1 {
        fill: #0c242b;
      }

      .cls-1, .cls-2, .cls-3 {
        stroke-width: 0px;
      }

      .cls-2 {
        fill: #da4635;
      }

      .cls-3 {
        fill: #fff;
      }
    </style>
  </defs>
  <g>
    <polygon class="cls-1" points="403.96 262.15 388.77 220.65 370.29 221.02 366.26 213.37 380.91 196.2 354.7 160.62 335.96 160.36 325.91 145.21 318.01 131.26 287.17 110.22 276.48 80.19 249.65 60 156.3 85.41 75.29 203.22 60 282.57 160.08 407.62 201.33 368.7 188.76 353.07 162.14 378.19 81.39 277.29 94.13 211.11 168.62 102.78 245.45 81.87 259.65 92.56 268.33 116.93 270.51 123.07 275.9 126.74 302.89 145.16 308.5 155.06 308.85 155.68 309.24 156.28 319.3 171.42 325.14 180.21 335.69 180.36 344.49 180.48 355.4 195.29 351.04 200.39 342.24 210.71 348.57 222.7 352.6 230.35 358.35 241.26 370.69 241.01 374.89 240.93 379.32 253.03 368.38 259.17 375.8 275.83 377.48 279.6 370.56 281.77 352.22 287.53 356.42 303.06 341.42 317.18 317.1 323.45 285.77 331.42 257.88 326.47 254.73 325.91 251.56 326.36 217.19 331.27 210.91 332.17 208.21 334.72 219.86 351.22 220.02 351.07 254.39 346.16 286.52 351.86 322.07 342.83 351.38 335.26 378.86 309.41 376.54 300.86 391.84 296.06 400.42 281.98 394.07 267.7 403.96 262.15"/>
    <g>
      <path class="cls-2" d="M218.95,351.45c-.31-.44-45.75-64.96-68.18-99.25-2.58-3.95-4.31-8.34-5.86-12.78-2.25-6.48-3.66-13.14-4.06-20-1.45-24.57,6.65-45.5,24.34-62.57,10.85-10.47,23.87-17.04,38.69-19.94,6.25-1.22,12.54-1.7,18.91-1.35,19.87,1.08,36.96,8.58,51.15,22.47,11.37,11.12,18.59,24.6,21.79,40.2,1.2,5.85,1.72,11.76,1.53,17.72-.38,12.44-3.41,24.2-9.45,35.1-1.8,3.25-4.01,6.27-6.05,9.39-20.69,31.56-62.52,90.6-62.82,91.02ZM218.99,183.51c-16.82,0-30.12,13.66-30.16,30.04-.04,16.26,13.05,30.17,30.09,30.19,16.91.02,30.04-13.66,30.16-29.87.13-16.6-13.28-30.33-30.09-30.36Z"/>
      <path class="cls-3" d="M218.99,183.51c-16.82,0-30.12,13.66-30.16,30.04-.04,16.26,13.05,30.17,30.09,30.19,16.91.02,30.04-13.66,30.16-29.87.13-16.6-13.28-30.33-30.09-30.36Z"/>
    </g>
  </g>
  <g>
    <path class="cls-1" d="M465.42,218.25l30.99-82.51h25.82l30.99,82.51h-22.94l-4.92-14.29h-32.91l-4.92,14.29h-22.1ZM497.61,187.86h22.46l-5.88-17.42c-.32-.88-.7-1.98-1.14-3.3-.44-1.32-.88-2.72-1.32-4.2-.44-1.48-.86-2.98-1.26-4.5-.4-1.52-.8-2.84-1.2-3.96h-.84c-.32,1.52-.78,3.24-1.38,5.16l-1.8,5.77c-.6,1.92-1.14,3.6-1.62,5.04l-6.01,17.42Z"/>
    <path class="cls-1" d="M561.5,218.25v-86.96h19.7v86.96h-19.7Z"/>
    <path class="cls-1" d="M637.41,240.59v-28.83h-.72c-1.44,1.68-3.04,3.12-4.8,4.32-1.76,1.2-3.76,2.1-6,2.7-2.24.6-4.61.9-7.09.9-5.21,0-9.73-1.2-13.57-3.6-3.84-2.4-6.83-6.04-8.95-10.93-2.12-4.88-3.18-11.05-3.18-18.5s1.04-13.73,3.12-18.62c2.08-4.88,5.08-8.53,9.01-10.93,3.92-2.4,8.57-3.6,13.93-3.6,4.08,0,7.83.86,11.23,2.58,3.4,1.72,6.1,4.26,8.11,7.63h.84l1.68-8.77h16.09v85.64h-19.7ZM625.28,204.32c2.16,0,4.02-.4,5.58-1.2,1.56-.8,2.82-1.92,3.78-3.36s1.68-3.16,2.16-5.17c.48-2,.72-4.2.72-6.61v-2.88c0-3.28-.42-6.14-1.26-8.59-.84-2.44-2.16-4.32-3.96-5.64-1.8-1.32-4.14-1.98-7.03-1.98s-5.34.58-7.15,1.74c-1.8,1.16-3.1,2.92-3.9,5.28-.8,2.36-1.2,5.22-1.2,8.59v4.2c0,3.36.4,6.21,1.2,8.53.8,2.32,2.1,4.08,3.9,5.28s4.18,1.8,7.15,1.8Z"/>
    <path class="cls-1" d="M693.14,219.69c-6.81,0-12.07-1.88-15.79-5.65-3.72-3.76-5.58-9.53-5.58-17.29v-41.8h19.7v39.03c0,1.68.22,3.16.66,4.44.44,1.28,1.06,2.36,1.86,3.24.8.88,1.82,1.52,3.06,1.92,1.24.4,2.58.6,4.02.6,2.32,0,4.36-.54,6.12-1.62,1.76-1.08,3.16-2.56,4.2-4.44,1.04-1.88,1.56-3.94,1.56-6.19v-36.99h19.7v63.3h-16.21l-1.2-9.01h-.84c-1.44,2.08-3.26,3.92-5.46,5.52-2.2,1.6-4.65,2.82-7.33,3.66-2.68.84-5.51,1.26-8.47,1.26Z"/>
    <path class="cls-1" d="M747.67,146.43v-15.13h19.7v15.13h-19.7ZM747.67,218.25v-63.3h19.7v63.3h-19.7Z"/>
    <path class="cls-1" d="M782.26,218.25v-86.96h19.7v86.96h-19.7Z"/>
    <path class="cls-1" d="M834.5,219.69c-2.64,0-5.22-.26-7.75-.78-2.52-.52-4.8-1.44-6.85-2.76-2.04-1.32-3.66-3.14-4.86-5.46-1.2-2.32-1.8-5.24-1.8-8.77,0-4.56.96-8.29,2.88-11.17,1.92-2.88,4.7-5.14,8.35-6.79,3.64-1.64,8.05-2.78,13.21-3.42,5.17-.64,10.95-.96,17.36-.96v-3.96c0-1.84-.36-3.38-1.08-4.62-.72-1.24-1.78-2.2-3.18-2.88-1.4-.68-3.26-1.02-5.58-1.02-2.08,0-3.9.24-5.46.72-1.56.48-2.74,1.18-3.54,2.1-.8.92-1.2,2.02-1.2,3.3v1.08h-19.22c-.08-.4-.12-.74-.12-1.02v-1.14c0-3.76,1.18-7.04,3.54-9.85,2.36-2.8,5.74-4.96,10.15-6.49,4.4-1.52,9.73-2.28,15.97-2.28,5.84,0,10.95.72,15.31,2.16,4.36,1.44,7.81,3.64,10.33,6.61,2.52,2.96,3.78,6.85,3.78,11.65v27.02c0,1.36.38,2.44,1.14,3.24.76.8,1.7,1.2,2.82,1.2h4.08v12.13c-.88.4-2.26.86-4.14,1.38-1.88.52-4.14.78-6.79.78s-5.1-.34-7.15-1.02c-2.04-.68-3.72-1.64-5.04-2.88-1.32-1.24-2.22-2.7-2.7-4.38h-.84c-1.52,1.6-3.3,3.04-5.34,4.32-2.04,1.28-4.4,2.26-7.09,2.94-2.68.68-5.75,1.02-9.19,1.02ZM841.83,206.12c1.92,0,3.68-.28,5.29-.84,1.6-.56,2.98-1.34,4.14-2.34,1.16-1,2.08-2.22,2.76-3.66.68-1.44,1.02-3,1.02-4.68v-4.2c-4.56,0-8.49.32-11.77.96-3.28.64-5.81,1.64-7.57,3-1.76,1.36-2.64,3.08-2.64,5.17,0,1.52.38,2.78,1.14,3.78.76,1,1.78,1.72,3.06,2.16,1.28.44,2.8.66,4.56.66Z"/>
    <path class="cls-1" d="M890.83,218.25v-63.3h16.21l1.44,9.73h.84c.96-2.16,2.14-4.1,3.54-5.83,1.4-1.72,3.12-3.06,5.16-4.02,2.04-.96,4.3-1.44,6.79-1.44,1.44,0,2.76.14,3.96.42,1.2.28,2.08.58,2.64.9v17.17h-6.25c-2.48,0-4.67.34-6.55,1.02-1.88.68-3.42,1.72-4.62,3.12-1.2,1.4-2.08,3.1-2.64,5.1-.56,2-.84,4.32-.84,6.97v30.15h-19.7Z"/>
    <path class="cls-1" d="M502.89,351.69c-7.21,0-13.33-1.18-18.38-3.54-5.04-2.36-8.91-5.99-11.59-10.87-2.68-4.88-4.02-11.13-4.02-18.74s1.32-13.61,3.96-18.5c2.64-4.88,6.44-8.53,11.41-10.93,4.96-2.4,10.93-3.6,17.9-3.6s12.71,1.16,17.48,3.48c4.76,2.32,8.39,5.89,10.87,10.69,2.48,4.8,3.72,11.01,3.72,18.62v4.2h-45.4c0,3.36.48,6.21,1.44,8.53.96,2.32,2.44,4.08,4.44,5.28,2,1.2,4.68,1.8,8.05,1.8,2,0,3.76-.24,5.28-.72,1.52-.48,2.8-1.18,3.84-2.1,1.04-.92,1.84-2.02,2.4-3.3.56-1.28.84-2.72.84-4.32h19.1c0,3.84-.7,7.27-2.1,10.27-1.4,3-3.46,5.52-6.19,7.57-2.72,2.04-6.03,3.58-9.91,4.62-3.88,1.04-8.27,1.56-13.15,1.56ZM488.96,311.57h25.22c0-2.08-.26-3.9-.78-5.46-.52-1.56-1.28-2.86-2.28-3.9-1-1.04-2.2-1.82-3.6-2.34-1.4-.52-3.02-.78-4.86-.78-2.88,0-5.29.48-7.21,1.44s-3.4,2.36-4.44,4.2c-1.04,1.84-1.72,4.12-2.04,6.85Z"/>
    <path class="cls-1" d="M546.25,350.25v-63.3h16.21l1.44,9.01h.84c1.6-2.16,3.44-4.04,5.52-5.65,2.08-1.6,4.44-2.8,7.09-3.6,2.64-.8,5.44-1.2,8.41-1.2,4.56,0,8.43.84,11.59,2.52,3.16,1.68,5.58,4.2,7.27,7.57s2.52,7.65,2.52,12.85v41.8h-19.7v-39.04c0-1.76-.22-3.26-.66-4.5-.44-1.24-1.06-2.3-1.86-3.18-.8-.88-1.8-1.52-3-1.92-1.2-.4-2.56-.6-4.08-.6-2.32,0-4.37.54-6.13,1.62-1.76,1.08-3.16,2.52-4.2,4.32-1.04,1.8-1.56,3.9-1.56,6.31v36.99h-19.7Z"/>
    <path class="cls-1" d="M684.01,351.69c-8.89,0-16.44-1.54-22.64-4.62-6.21-3.08-10.91-7.79-14.11-14.11-3.2-6.33-4.8-14.33-4.8-24.02,0-14.25,3.58-24.92,10.75-32.01,7.17-7.09,17.43-10.63,30.81-10.63,7.45,0,14.05,1.26,19.82,3.78,5.77,2.52,10.27,6.29,13.51,11.29,3.24,5,4.86,11.23,4.86,18.68h-21.02c0-3.52-.7-6.54-2.1-9.07-1.4-2.52-3.36-4.46-5.88-5.83-2.52-1.36-5.58-2.04-9.19-2.04-4.49,0-8.17.92-11.05,2.76-2.88,1.84-5,4.49-6.37,7.93-1.36,3.44-2.04,7.61-2.04,12.49v5.4c0,4.89.68,9.07,2.04,12.55,1.36,3.48,3.46,6.12,6.31,7.93,2.84,1.8,6.5,2.7,10.99,2.7,3.84,0,7.1-.64,9.79-1.92,2.68-1.28,4.72-3.18,6.13-5.71,1.4-2.52,2.1-5.54,2.1-9.07h20.3c0,7.45-1.58,13.65-4.74,18.62-3.16,4.97-7.61,8.69-13.33,11.17-5.73,2.48-12.43,3.72-20.12,3.72Z"/>
    <path class="cls-1" d="M727.01,350.25l30.99-82.51h25.82l30.99,82.51h-22.94l-4.92-14.29h-32.91l-4.92,14.29h-22.1ZM759.2,319.86h22.46l-5.88-17.42c-.32-.88-.7-1.98-1.14-3.3-.44-1.32-.88-2.72-1.32-4.2-.44-1.48-.86-2.98-1.26-4.5-.4-1.52-.8-2.84-1.2-3.96h-.84c-.32,1.52-.78,3.24-1.38,5.16l-1.8,5.77c-.6,1.92-1.14,3.6-1.62,5.04l-6.01,17.42Z"/>
    <path class="cls-1" d="M824.66,350.25v-82.51h50.45c4.24,0,8.09.84,11.53,2.52,3.44,1.68,6.19,4.04,8.23,7.09,2.04,3.04,3.06,6.61,3.06,10.69,0,3.6-.62,6.69-1.86,9.25-1.24,2.56-2.88,4.64-4.92,6.25-2.04,1.6-4.34,2.8-6.91,3.6v.48c2.96.64,5.64,1.78,8.05,3.42,2.4,1.64,4.3,3.86,5.71,6.67,1.4,2.8,2.1,6.21,2.1,10.21,0,4.73-1.12,8.75-3.36,12.07-2.24,3.32-5.21,5.87-8.89,7.63-3.68,1.76-7.81,2.64-12.37,2.64h-50.81ZM846.16,300.52h21.5c1.76,0,3.26-.36,4.5-1.08,1.24-.72,2.2-1.72,2.88-3,.68-1.28,1.02-2.8,1.02-4.56,0-2.56-.76-4.56-2.28-6-1.52-1.44-3.44-2.16-5.77-2.16h-21.86v16.81ZM846.16,333.67h23.42c2.56,0,4.62-.76,6.19-2.28,1.56-1.52,2.34-3.84,2.34-6.97,0-1.68-.34-3.18-1.02-4.5-.68-1.32-1.68-2.34-3-3.06s-2.94-1.08-4.86-1.08h-23.06v17.9Z"/>
    <path class="cls-1" d="M906.09,350.25l30.99-82.51h25.82l30.99,82.51h-22.94l-4.92-14.29h-32.91l-4.92,14.29h-22.1ZM938.28,319.86h22.46l-5.88-17.42c-.32-.88-.7-1.98-1.14-3.3-.44-1.32-.88-2.72-1.32-4.2-.44-1.48-.86-2.98-1.26-4.5-.4-1.52-.8-2.84-1.2-3.96h-.84c-.32,1.52-.78,3.24-1.38,5.16l-1.8,5.77c-.6,1.92-1.14,3.6-1.62,5.04l-6.01,17.42Z"/>
  </g>
</svg>