<?xml version="1.0" encoding="UTF-8"?>
<svg id="Capa_1" data-name="Capa 1" xmlns="http://www.w3.org/2000/svg" viewBox="0 0 463.96 573.62">
  <defs>
    <style>
      .cls-1 {
        fill: #0c242b;
      }

      .cls-1, .cls-2, .cls-3 {
        stroke-width: 0px;
      }

      .cls-2 {
        fill: #da4635;
      }

      .cls-3 {
        fill: #fff;
      }
    </style>
  </defs>
  <g>
    <polygon class="cls-1" points="363.18 214.43 351.58 182.77 337.49 183.05 334.41 177.22 345.59 164.12 325.6 136.98 311.31 136.78 303.63 125.22 297.61 114.58 274.08 98.53 265.92 75.62 245.46 60.22 174.24 79.6 112.45 169.48 100.79 230.01 177.13 325.4 208.6 295.71 199.01 283.78 178.7 302.95 117.1 225.98 126.83 175.49 183.65 92.85 242.25 76.9 253.09 85.06 259.71 103.65 261.37 108.33 265.48 111.13 286.08 125.18 290.35 132.74 290.62 133.21 290.92 133.66 298.6 145.22 303.05 151.92 311.09 152.03 317.81 152.13 326.13 163.42 322.81 167.32 316.09 175.19 320.92 184.34 324 190.17 328.39 198.49 337.79 198.3 341 198.24 344.38 207.47 336.03 212.15 341.69 224.87 342.97 227.75 337.69 229.4 323.71 233.79 326.91 245.64 315.46 256.41 296.91 261.19 273.01 267.27 251.74 263.49 249.33 263.07 246.92 263.41 220.7 267.16 215.91 267.85 213.84 269.79 222.74 282.38 222.86 282.26 249.07 278.52 273.58 282.87 300.71 275.97 323.07 270.2 344.02 250.48 342.26 243.96 353.93 240.3 360.48 229.55 355.63 218.66 363.18 214.43"/>
    <g>
      <path class="cls-2" d="M222.04,282.55c-.23-.33-34.9-49.55-52.01-75.71-1.97-3.01-3.29-6.36-4.47-9.75-1.72-4.94-2.79-10.03-3.1-15.26-1.1-18.75,5.08-34.71,18.57-47.73,8.28-7.99,18.21-13,29.52-15.21,4.76-.93,9.57-1.3,14.42-1.03,15.16.82,28.19,6.54,39.02,17.14,8.67,8.49,14.18,18.76,16.62,30.67.91,4.46,1.31,8.97,1.17,13.52-.29,9.49-2.6,18.46-7.21,26.78-1.37,2.48-3.06,4.78-4.62,7.16-15.78,24.08-47.69,69.12-47.92,69.43ZM222.07,154.44c-12.83,0-22.98,10.42-23.01,22.92-.03,12.41,9.96,23.02,22.95,23.03,12.9.02,22.91-10.42,23.01-22.79.1-12.66-10.13-23.14-22.95-23.16Z"/>
      <path class="cls-3" d="M222.07,154.44c-12.83,0-22.98,10.42-23.01,22.92-.03,12.41,9.96,23.02,22.95,23.03,12.9.02,22.91-10.42,23.01-22.79.1-12.66-10.13-23.14-22.95-23.16Z"/>
    </g>
  </g>
  <g>
    <path class="cls-1" d="M75.99,425.56l20.86-55.54h17.38l20.86,55.54h-15.44l-3.31-9.62h-22.15l-3.31,9.62h-14.88ZM97.66,405.11h15.12l-3.96-11.72c-.22-.59-.47-1.33-.77-2.22-.3-.89-.59-1.83-.89-2.83-.3-1-.58-2.01-.85-3.03-.27-1.02-.54-1.91-.81-2.67h-.57c-.22,1.02-.53,2.18-.93,3.48-.4,1.29-.81,2.59-1.21,3.88-.4,1.29-.77,2.43-1.09,3.4l-4.04,11.72Z"/>
    <path class="cls-1" d="M140.67,425.56v-58.53h13.26v58.53h-13.26Z"/>
    <path class="cls-1" d="M191.76,440.6v-19.4h-.49c-.97,1.13-2.05,2.1-3.23,2.91-1.19.81-2.53,1.42-4.04,1.82-1.51.4-3.1.61-4.77.61-3.5,0-6.55-.81-9.14-2.42-2.59-1.62-4.59-4.07-6.02-7.36-1.43-3.29-2.14-7.44-2.14-12.45s.7-9.24,2.1-12.53c1.4-3.29,3.42-5.74,6.06-7.36,2.64-1.62,5.77-2.42,9.38-2.42,2.75,0,5.27.58,7.56,1.74,2.29,1.16,4.11,2.87,5.46,5.13h.57l1.13-5.9h10.83v57.64h-13.26ZM183.6,416.18c1.46,0,2.71-.27,3.76-.81,1.05-.54,1.9-1.29,2.55-2.26s1.13-2.13,1.46-3.48c.32-1.35.49-2.83.49-4.45v-1.94c0-2.21-.28-4.14-.85-5.78-.57-1.64-1.46-2.91-2.67-3.8-1.21-.89-2.79-1.33-4.73-1.33s-3.6.39-4.81,1.17-2.09,1.97-2.63,3.56c-.54,1.59-.81,3.52-.81,5.78v2.83c0,2.26.27,4.18.81,5.74.54,1.56,1.42,2.75,2.63,3.56s2.82,1.21,4.81,1.21Z"/>
    <path class="cls-1" d="M229.27,426.53c-4.58,0-8.12-1.27-10.63-3.8s-3.76-6.41-3.76-11.64v-28.13h13.26v26.27c0,1.13.15,2.13.44,2.99.3.86.71,1.59,1.25,2.18.54.59,1.22,1.02,2.06,1.29.83.27,1.74.4,2.71.4,1.56,0,2.94-.36,4.12-1.09,1.18-.73,2.13-1.72,2.83-2.99.7-1.27,1.05-2.65,1.05-4.16v-24.9h13.26v42.61h-10.91l-.81-6.06h-.57c-.97,1.4-2.2,2.64-3.68,3.72-1.48,1.08-3.13,1.9-4.93,2.47-1.81.57-3.71.85-5.7.85Z"/>
    <path class="cls-1" d="M265.98,377.21v-10.19h13.26v10.19h-13.26ZM265.98,425.56v-42.61h13.26v42.61h-13.26Z"/>
    <path class="cls-1" d="M289.26,425.56v-58.53h13.26v58.53h-13.26Z"/>
    <path class="cls-1" d="M324.43,426.53c-1.78,0-3.52-.17-5.21-.53-1.7-.35-3.23-.97-4.61-1.86-1.38-.89-2.47-2.11-3.27-3.68s-1.21-3.53-1.21-5.9c0-3.07.65-5.58,1.94-7.52s3.17-3.46,5.62-4.57c2.45-1.1,5.42-1.87,8.89-2.3,3.48-.43,7.37-.65,11.68-.65v-2.67c0-1.24-.24-2.28-.73-3.11-.48-.83-1.2-1.48-2.14-1.94-.94-.46-2.2-.69-3.76-.69-1.4,0-2.63.16-3.68.49-1.05.32-1.85.8-2.38,1.42-.54.62-.81,1.36-.81,2.22v.73h-12.93c-.05-.27-.08-.5-.08-.69v-.77c0-2.53.79-4.74,2.38-6.63,1.59-1.89,3.87-3.34,6.83-4.37,2.96-1.02,6.55-1.54,10.75-1.54,3.93,0,7.37.48,10.31,1.46,2.94.97,5.25,2.45,6.95,4.45,1.7,1.99,2.55,4.61,2.55,7.84v18.19c0,.92.26,1.64.77,2.18.51.54,1.14.81,1.9.81h2.75v8.17c-.59.27-1.52.58-2.79.93-1.27.35-2.79.53-4.57.53s-3.44-.23-4.81-.69c-1.38-.46-2.51-1.1-3.4-1.94-.89-.83-1.5-1.82-1.82-2.95h-.57c-1.03,1.08-2.22,2.05-3.6,2.91-1.38.86-2.96,1.52-4.77,1.98-1.81.46-3.87.69-6.18.69ZM329.36,417.39c1.29,0,2.48-.19,3.56-.57,1.08-.38,2.01-.9,2.79-1.58.78-.67,1.4-1.5,1.86-2.47.46-.97.69-2.02.69-3.15v-2.83c-3.07,0-5.71.22-7.92.65-2.21.43-3.91,1.11-5.09,2.02-1.19.92-1.78,2.08-1.78,3.48,0,1.03.25,1.87.77,2.55.51.67,1.2,1.16,2.06,1.46.86.3,1.89.45,3.07.45Z"/>
    <path class="cls-1" d="M362.34,425.56v-42.61h10.91l.97,6.55h.57c.65-1.46,1.44-2.76,2.38-3.92.94-1.16,2.1-2.06,3.48-2.71,1.37-.65,2.9-.97,4.57-.97.97,0,1.86.09,2.67.28.81.19,1.4.39,1.78.61v11.56h-4.2c-1.67,0-3.14.23-4.41.69-1.27.46-2.3,1.16-3.11,2.1-.81.94-1.4,2.09-1.78,3.44-.38,1.35-.57,2.91-.57,4.69v20.29h-13.26Z"/>
    <path class="cls-1" d="M79.39,515.38c-4.85,0-8.97-.79-12.37-2.38-3.4-1.59-6-4.03-7.8-7.32-1.81-3.29-2.71-7.49-2.71-12.61s.89-9.16,2.67-12.45c1.78-3.29,4.34-5.74,7.68-7.36,3.34-1.62,7.36-2.42,12.05-2.42s8.56.78,11.76,2.34c3.21,1.56,5.65,3.96,7.32,7.2,1.67,3.23,2.51,7.41,2.51,12.53v2.83h-30.56c0,2.26.32,4.18.97,5.74.65,1.56,1.64,2.75,2.99,3.56,1.35.81,3.15,1.21,5.42,1.21,1.35,0,2.53-.16,3.56-.49,1.02-.32,1.89-.79,2.59-1.42.7-.62,1.24-1.36,1.62-2.22.38-.86.57-1.83.57-2.91h12.85c0,2.59-.47,4.89-1.41,6.91-.94,2.02-2.33,3.72-4.16,5.09-1.83,1.37-4.06,2.41-6.67,3.11-2.61.7-5.57,1.05-8.85,1.05ZM70.01,488.38h16.98c0-1.4-.18-2.63-.53-3.68-.35-1.05-.86-1.93-1.54-2.63-.67-.7-1.48-1.23-2.42-1.58-.94-.35-2.04-.53-3.27-.53-1.94,0-3.56.32-4.85.97-1.29.65-2.29,1.59-2.99,2.83-.7,1.24-1.16,2.78-1.38,4.61Z"/>
    <path class="cls-1" d="M108.57,514.41v-42.61h10.91l.97,6.06h.57c1.08-1.46,2.32-2.72,3.72-3.8,1.4-1.08,2.99-1.89,4.77-2.42s3.67-.81,5.66-.81c3.07,0,5.67.57,7.8,1.7,2.13,1.13,3.76,2.83,4.89,5.09s1.7,5.15,1.7,8.65v28.13h-13.26v-26.27c0-1.19-.15-2.2-.44-3.03-.3-.83-.71-1.55-1.25-2.14-.54-.59-1.21-1.02-2.02-1.29-.81-.27-1.73-.4-2.75-.4-1.56,0-2.94.36-4.12,1.09s-2.13,1.7-2.83,2.91c-.7,1.21-1.05,2.63-1.05,4.24v24.9h-13.26Z"/>
    <path class="cls-1" d="M201.3,515.38c-5.98,0-11.06-1.04-15.24-3.11-4.18-2.07-7.34-5.24-9.5-9.5-2.16-4.26-3.23-9.65-3.23-16.17,0-9.59,2.41-16.78,7.24-21.54,4.82-4.77,11.73-7.16,20.74-7.16,5.01,0,9.46.85,13.34,2.55,3.88,1.7,6.91,4.23,9.09,7.6s3.27,7.56,3.27,12.57h-14.15c0-2.37-.47-4.41-1.41-6.1-.94-1.7-2.26-3-3.96-3.92-1.7-.92-3.76-1.37-6.18-1.37-3.02,0-5.5.62-7.44,1.86-1.94,1.24-3.37,3.02-4.29,5.34-.92,2.32-1.37,5.12-1.37,8.41v3.64c0,3.29.46,6.1,1.37,8.45.92,2.34,2.33,4.12,4.24,5.34s4.38,1.82,7.4,1.82c2.59,0,4.78-.43,6.59-1.29,1.81-.86,3.18-2.14,4.12-3.84.94-1.7,1.42-3.73,1.42-6.1h13.66c0,5.01-1.07,9.19-3.19,12.53-2.13,3.34-5.12,5.85-8.97,7.52-3.85,1.67-8.37,2.51-13.54,2.51Z"/>
    <path class="cls-1" d="M230.24,514.41l20.86-55.54h17.38l20.86,55.54h-15.44l-3.31-9.62h-22.15l-3.31,9.62h-14.88ZM251.91,493.96h15.12l-3.96-11.72c-.22-.59-.47-1.33-.77-2.22-.3-.89-.59-1.83-.89-2.83-.3-1-.58-2.01-.85-3.03-.27-1.02-.54-1.91-.81-2.67h-.57c-.22,1.02-.53,2.18-.93,3.48-.4,1.29-.81,2.59-1.21,3.88-.4,1.29-.77,2.43-1.09,3.4l-4.04,11.72Z"/>
    <path class="cls-1" d="M295.97,514.41v-55.54h33.96c2.86,0,5.44.57,7.76,1.7s4.16,2.72,5.54,4.77c1.37,2.05,2.06,4.45,2.06,7.2,0,2.43-.42,4.5-1.25,6.23-.84,1.73-1.94,3.13-3.31,4.2-1.38,1.08-2.92,1.89-4.65,2.43v.32c1.99.43,3.8,1.2,5.42,2.3s2.9,2.6,3.84,4.49c.94,1.89,1.42,4.18,1.42,6.87,0,3.18-.75,5.89-2.26,8.12-1.51,2.24-3.5,3.95-5.98,5.13-2.48,1.19-5.25,1.78-8.33,1.78h-34.2ZM310.44,480.94h14.47c1.18,0,2.2-.24,3.03-.73.83-.49,1.48-1.16,1.94-2.02.46-.86.69-1.89.69-3.07,0-1.72-.51-3.07-1.54-4.04-1.02-.97-2.32-1.46-3.88-1.46h-14.71v11.32ZM310.44,503.25h15.77c1.72,0,3.11-.51,4.16-1.54,1.05-1.02,1.58-2.59,1.58-4.69,0-1.13-.23-2.14-.69-3.03-.46-.89-1.13-1.58-2.02-2.06-.89-.49-1.98-.73-3.27-.73h-15.52v12.05Z"/>
    <path class="cls-1" d="M350.78,514.41l20.86-55.54h17.38l20.86,55.54h-15.44l-3.31-9.62h-22.15l-3.31,9.62h-14.88ZM372.45,493.96h15.12l-3.96-11.72c-.22-.59-.47-1.33-.77-2.22-.3-.89-.59-1.83-.89-2.83-.3-1-.58-2.01-.85-3.03-.27-1.02-.54-1.91-.81-2.67h-.57c-.22,1.02-.53,2.18-.93,3.48-.4,1.29-.81,2.59-1.21,3.88-.4,1.29-.77,2.43-1.09,3.4l-4.04,11.72Z"/>
  </g>
</svg>